# 3D red sunburst / radial icon
mtllib red_3d_sunburst.mtl
o Red_Sunburst_20_Spokes
v 1.628845 -0.047190 -0.406971
v 1.628230 -0.011263 -0.411983
v 3.461164 0.192110 -0.665836
v 3.468746 -0.250562 -0.604086
v 1.679532 0.011263 0.005841
v 1.678917 0.047190 0.000829
v 3.511851 0.250562 -0.253023
v 3.519433 -0.192110 -0.191274
v 1.544714 0.463593 -0.468966
v 1.533001 0.497762 -0.472366
v 3.203538 1.257363 -0.785039
v 3.347857 0.836357 -0.743146
v 1.595401 0.522046 -0.056154
v 1.583688 0.556215 -0.059554
v 3.254225 1.315815 -0.372227
v 3.398544 0.894810 -0.330334
v 1.306894 0.926136 -0.505260
v 1.285230 0.955202 -0.506716
v 2.629846 2.196676 -0.847602
v 2.896774 1.838547 -0.829667
v 1.357581 0.984589 -0.092448
v 1.335917 1.013655 -0.093903
v 2.680533 2.255128 -0.434789
v 2.947461 1.896999 -0.416854
v 0.938666 1.295161 -0.512300
v 0.909172 1.316279 -0.511669
v 1.796246 2.918102 -0.847400
v 2.159655 2.657906 -0.855178
v 0.989353 1.353614 -0.099488
v 0.959859 1.374732 -0.098856
v 1.846933 2.976554 -0.434587
v 2.210342 2.716359 -0.442366
v 0.476074 1.534546 -0.489397
v 0.441636 1.545649 -0.486741
v 0.784335 3.351023 -0.784453
v 1.208653 3.214230 -0.817183
v 0.526761 1.592999 -0.076584
v 0.492323 1.604101 -0.073928
v 0.835022 3.409476 -0.371641
v 1.259340 3.272683 -0.404371
v -0.035601 1.620858 -0.438793
v -0.071610 1.620858 -0.434371
v -0.306832 3.453062 -0.664923
v 0.136858 3.453062 -0.719401
v 0.015086 1.679311 -0.025980
v -0.020924 1.679311 -0.021559
v -0.256145 3.511514 -0.252110
v 0.187545 3.511514 -0.306589
v -0.546271 1.545649 -0.365441
v -0.580328 1.534546 -0.359687
v -1.370445 3.214230 -0.500510
v -0.950814 3.351023 -0.571403
v -0.495584 1.604101 0.047372
v -0.529641 1.592999 0.053125
v -1.319758 3.272683 -0.087697
v -0.900127 3.409476 -0.158591
v -1.005949 1.316279 -0.276522
v -1.034720 1.295161 -0.269999
v -2.302390 2.657906 -0.307308
v -1.947894 2.918102 -0.387677
v -0.955262 1.374732 0.136291
v -0.984033 1.353614 0.142814
v -2.251703 2.716359 0.105505
v -1.897207 2.976554 0.025135
v -1.369639 0.955202 -0.180739
v -1.390307 0.926136 -0.174086
v -3.011442 1.838547 -0.104229
v -2.756782 2.196676 -0.186207
v -1.318952 1.013655 0.232074
v -1.339620 0.984589 0.238727
v -2.960755 1.896999 0.308583
v -2.706095 2.255128 0.226605
v -1.601740 0.497762 -0.087469
v -1.612282 0.463593 -0.081336
v -3.428194 0.836357 0.088848
v -3.298297 1.257363 0.013286
v -1.551053 0.556215 0.325344
v -1.561595 0.522046 0.331476
v -3.377507 0.894810 0.501660
v -3.247610 1.315815 0.426098
v -1.679532 -0.011263 -0.005841
v -1.678917 -0.047190 -0.000829
v -3.511851 -0.250562 0.253023
v -3.519433 0.192110 0.191274
v -1.628845 0.047190 0.406971
v -1.628230 0.011263 0.411983
v -3.461164 -0.192110 0.665836
v -3.468746 0.250562 0.604086
v -1.595401 -0.522046 0.056154
v -1.583688 -0.556215 0.059554
v -3.254225 -1.315815 0.372227
v -3.398544 -0.894810 0.330334
v -1.544714 -0.463593 0.468966
v -1.533001 -0.497762 0.472366
v -3.203538 -1.257363 0.785039
v -3.347857 -0.836357 0.743146
v -1.357581 -0.984589 0.092448
v -1.335917 -1.013655 0.093903
v -2.680533 -2.255128 0.434789
v -2.947461 -1.896999 0.416854
v -1.306894 -0.926136 0.505260
v -1.285230 -0.955202 0.506716
v -2.629846 -2.196676 0.847602
v -2.896774 -1.838547 0.829667
v -0.989353 -1.353614 0.099488
v -0.959859 -1.374732 0.098856
v -1.846933 -2.976554 0.434587
v -2.210342 -2.716359 0.442366
v -0.938666 -1.295161 0.512300
v -0.909172 -1.316279 0.511669
v -1.796246 -2.918102 0.847400
v -2.159655 -2.657906 0.855178
v -0.526761 -1.592999 0.076584
v -0.492323 -1.604101 0.073928
v -0.835022 -3.409476 0.371641
v -1.259340 -3.272683 0.404371
v -0.476074 -1.534546 0.489397
v -0.441636 -1.545649 0.486741
v -0.784335 -3.351023 0.784453
v -1.208653 -3.214230 0.817183
v -0.015086 -1.679311 0.025980
v 0.020924 -1.679311 0.021559
v 0.256145 -3.511514 0.252110
v -0.187545 -3.511514 0.306589
v 0.035601 -1.620858 0.438793
v 0.071610 -1.620858 0.434371
v 0.306832 -3.453062 0.664923
v -0.136858 -3.453062 0.719401
v 0.495584 -1.604101 -0.047372
v 0.529641 -1.592999 -0.053125
v 1.319758 -3.272683 0.087697
v 0.900127 -3.409476 0.158591
v 0.546271 -1.545649 0.365441
v 0.580328 -1.534546 0.359687
v 1.370445 -3.214230 0.500510
v 0.950814 -3.351023 0.571403
v 0.955262 -1.374732 -0.136291
v 0.984033 -1.353614 -0.142814
v 2.251703 -2.716359 -0.105505
v 1.897207 -2.976554 -0.025135
v 1.005949 -1.316279 0.276522
v 1.034720 -1.295161 0.269999
v 2.302390 -2.657906 0.307308
v 1.947894 -2.918102 0.387677
v 1.318952 -1.013655 -0.232074
v 1.339620 -0.984589 -0.238727
v 2.960755 -1.896999 -0.308583
v 2.706095 -2.255128 -0.226605
v 1.369639 -0.955202 0.180739
v 1.390307 -0.926136 0.174086
v 3.011442 -1.838547 0.104229
v 2.756782 -2.196676 0.186207
v 1.551053 -0.556215 -0.325344
v 1.561595 -0.522046 -0.331476
v 3.377507 -0.894810 -0.501660
v 3.247610 -1.315815 -0.426098
v 1.601740 -0.497762 0.087469
v 1.612282 -0.463593 0.081336
v 3.428194 -0.836357 -0.088848
v 3.298297 -1.257363 -0.013286
usemtl Matte_Red
f 1 4 3 2
f 5 6 7 8
f 1 2 6 5
f 2 3 7 6
f 3 4 8 7
f 4 1 5 8
f 9 12 11 10
f 13 14 15 16
f 9 10 14 13
f 10 11 15 14
f 11 12 16 15
f 12 9 13 16
f 17 20 19 18
f 21 22 23 24
f 17 18 22 21
f 18 19 23 22
f 19 20 24 23
f 20 17 21 24
f 25 28 27 26
f 29 30 31 32
f 25 26 30 29
f 26 27 31 30
f 27 28 32 31
f 28 25 29 32
f 33 36 35 34
f 37 38 39 40
f 33 34 38 37
f 34 35 39 38
f 35 36 40 39
f 36 33 37 40
f 41 44 43 42
f 45 46 47 48
f 41 42 46 45
f 42 43 47 46
f 43 44 48 47
f 44 41 45 48
f 49 52 51 50
f 53 54 55 56
f 49 50 54 53
f 50 51 55 54
f 51 52 56 55
f 52 49 53 56
f 57 60 59 58
f 61 62 63 64
f 57 58 62 61
f 58 59 63 62
f 59 60 64 63
f 60 57 61 64
f 65 68 67 66
f 69 70 71 72
f 65 66 70 69
f 66 67 71 70
f 67 68 72 71
f 68 65 69 72
f 73 76 75 74
f 77 78 79 80
f 73 74 78 77
f 74 75 79 78
f 75 76 80 79
f 76 73 77 80
f 81 84 83 82
f 85 86 87 88
f 81 82 86 85
f 82 83 87 86
f 83 84 88 87
f 84 81 85 88
f 89 92 91 90
f 93 94 95 96
f 89 90 94 93
f 90 91 95 94
f 91 92 96 95
f 92 89 93 96
f 97 100 99 98
f 101 102 103 104
f 97 98 102 101
f 98 99 103 102
f 99 100 104 103
f 100 97 101 104
f 105 108 107 106
f 109 110 111 112
f 105 106 110 109
f 106 107 111 110
f 107 108 112 111
f 108 105 109 112
f 113 116 115 114
f 117 118 119 120
f 113 114 118 117
f 114 115 119 118
f 115 116 120 119
f 116 113 117 120
f 121 124 123 122
f 125 126 127 128
f 121 122 126 125
f 122 123 127 126
f 123 124 128 127
f 124 121 125 128
f 129 132 131 130
f 133 134 135 136
f 129 130 134 133
f 130 131 135 134
f 131 132 136 135
f 132 129 133 136
f 137 140 139 138
f 141 142 143 144
f 137 138 142 141
f 138 139 143 142
f 139 140 144 143
f 140 137 141 144
f 145 148 147 146
f 149 150 151 152
f 145 146 150 149
f 146 147 151 150
f 147 148 152 151
f 148 145 149 152
f 153 156 155 154
f 157 158 159 160
f 153 154 158 157
f 154 155 159 158
f 155 156 160 159
f 156 153 157 160
